<svg width="652" height="652" viewBox="0 0 652 652" fill="none" xmlns="http://www.w3.org/2000/svg">
<circle cx="326" cy="326" r="318.5" fill="#DF280F" stroke="black" stroke-width="15"/>
<path d="M325.822 48.8645L332.161 61.7012L346.325 63.7618L336.075 73.7572L338.495 87.8652L325.822 81.2017L313.151 87.8652L315.572 73.7572L305.324 63.7618L319.485 61.7012L325.822 48.8645Z" fill="#FFDF00"/>
<path d="M254.14 58.2992L263.579 69.0617L277.798 67.3833L270.483 79.6912L276.471 92.6887L262.51 89.5342L251.991 99.2471L250.678 84.9977L238.188 77.9963L251.34 72.3381L254.14 58.2992Z" fill="#FFDF00"/>
<path d="M187.349 85.9677L199.248 93.919L212.547 88.6181L208.669 102.397L217.818 113.408L203.514 113.971L195.87 126.079L190.913 112.649L177.035 109.121L188.278 100.253L187.349 85.9677Z" fill="#FFDF00"/>
<path d="M129.981 129.982L143.533 134.579L155.01 126.016L154.826 140.326L166.515 148.596L152.849 152.844L148.596 166.518L140.334 154.833L126.016 155.013L134.579 143.536L129.981 129.982Z" fill="#FFDF00"/>
<path d="M85.9727 187.339L100.253 188.275L109.119 177.031L112.643 190.904L126.077 195.864L113.977 203.511L113.406 217.815L102.401 208.665L88.6126 212.545L93.9135 199.243L85.9727 187.339Z" fill="#FFDF00"/>
<path d="M58.3047 254.135L72.3419 251.34L77.9945 238.185L84.9888 250.676L99.2508 251.989L89.5378 262.505L92.6948 276.469L79.6931 270.478L67.3836 277.801L69.055 263.574L58.3047 254.135Z" fill="#FFDF00"/>
<path d="M48.8672 325.814L61.7013 319.483L63.761 305.314L73.7499 315.567L87.8627 313.143L81.2017 325.814L87.868 338.487L73.7585 336.07L63.761 346.325L61.6927 332.148L48.8672 325.814Z" fill="#FFDF00"/>
<path d="M58.293 397.496L69.0521 388.06L67.3732 373.836L79.6781 381.155L92.6819 375.168L89.5316 389.126L99.2469 399.645L84.9934 400.961L77.9884 413.451L72.3227 400.293L58.293 397.496Z" fill="#FFDF00"/>
<path d="M85.9531 464.291L93.9078 452.393L88.6069 439.088L102.393 442.973L113.397 433.82L113.971 448.122L126.075 455.766L112.648 460.726L109.114 474.604L100.237 463.363L85.9531 464.291Z" fill="#FFDF00"/>
<path d="M129.972 521.651L134.573 508.1L126.016 496.62L140.329 496.806L148.592 485.118L152.849 498.783L166.515 503.034L154.831 511.299L155.01 525.62L143.529 517.062L129.972 521.651Z" fill="#FFDF00"/>
<path d="M187.321 565.665L188.261 551.385L177.023 542.512L190.897 538.986L195.853 525.556L203.504 537.657L217.804 538.222L208.659 549.236L212.534 563.02L199.231 557.722L187.321 565.665Z" fill="#FFDF00"/>
<path d="M254.125 593.336L251.333 579.3L238.184 573.642L250.674 566.64L251.99 552.385L262.511 562.095L276.464 558.941L270.477 571.944L277.796 584.26L263.569 582.579L254.125 593.336Z" fill="#FFDF00"/>
<path d="M325.806 602.774L319.472 589.943L305.309 587.877L315.561 577.882L313.141 563.774L325.817 570.432L338.477 563.771L336.064 577.882L346.312 587.877L332.143 589.943L325.806 602.774Z" fill="#FFDF00"/>
<path d="M397.488 593.342L388.049 582.585L373.836 584.255L381.148 571.947L375.157 558.947L389.132 562.096L399.634 552.386L400.955 566.641L413.443 573.645L400.293 579.306L397.488 593.342Z" fill="#FFDF00"/>
<path d="M464.287 565.674L452.389 557.728L439.092 563.021L442.973 549.242L433.816 538.23L448.129 537.657L455.76 525.557L460.728 538.989L474.601 542.52L463.368 551.394L464.287 565.674Z" fill="#FFDF00"/>
<path d="M521.644 521.662L508.092 517.065L496.626 525.62L496.804 511.304L485.113 503.04L498.792 498.78L503.024 485.121L511.302 496.806L525.615 496.628L517.063 508.103L521.644 521.662Z" fill="#FFDF00"/>
<path d="M565.664 464.305L551.382 463.371L542.519 474.604L538.985 460.732L525.559 455.772L537.667 448.119L538.215 433.826L549.238 442.973L563.014 439.096L557.727 452.393L565.664 464.305Z" fill="#FFDF00"/>
<path d="M593.335 397.512L579.296 400.304L573.643 413.448L566.639 400.966L552.387 399.648L562.1 389.126L558.934 375.176L571.945 381.155L584.248 373.846L582.586 388.06L593.335 397.512Z" fill="#FFDF00"/>
<path d="M602.772 325.828L589.932 332.162L587.875 346.325L577.876 336.075L563.771 338.496L570.429 325.814L563.766 313.157L577.876 315.567L587.872 305.322L589.943 319.483L602.772 325.828Z" fill="#FFDF00"/>
<path d="M593.34 254.143L582.58 263.587L584.253 277.801L571.951 270.486L558.945 276.474L562.094 262.507L552.387 252.005L566.639 250.676L573.637 238.193L579.31 251.34L593.34 254.143Z" fill="#FFDF00"/>
<path d="M565.667 187.35L557.721 199.253L563.014 212.544L549.238 208.67L538.224 217.82L537.656 203.51L525.559 195.88L538.983 190.909L542.514 177.039L551.393 188.272L565.667 187.35Z" fill="#FFDF00"/>
<path d="M521.66 129.988L517.062 143.545L525.615 155.013L511.307 154.836L503.032 166.526L498.783 152.848L485.121 148.607L496.803 140.337L496.62 126.024L508.106 134.574L521.66 129.988Z" fill="#FFDF00"/>
<path d="M464.303 85.9698L463.369 100.258L474.6 109.12L460.733 112.652L455.767 126.084L448.12 113.975L433.832 113.413L442.972 102.399L439.091 88.6258L452.399 93.9073L464.303 85.9698Z" fill="#FFDF00"/>
<path d="M397.502 58.3005L400.296 72.3422L413.441 77.9976L400.958 85.0045L399.64 99.2539L389.118 89.5383L375.168 92.6984L381.145 79.6925L373.836 67.393L388.06 69.0492L397.502 58.3005Z" fill="#FFDF00"/>
<path d="M392.737 439.296L323.135 338.171L313.223 323.775L232.458 206.431H267.199L332.515 301.33L342.426 315.725L427.478 439.296H392.737ZM441.84 429.418L354.176 302.059L344.265 287.655L281.555 196.551L276.358 189H199.301L218.094 216.309L301.473 337.457L311.385 351.846L378.379 449.185L383.577 456.727H460.634L441.84 429.418Z" fill="white"/>
<path d="M313.223 323.775L323.135 338.171L311.385 351.846L221.231 456.727H199L301.473 337.457L313.223 323.775Z" fill="white"/>
<path d="M451.358 189.001L354.177 302.059L342.427 315.726L332.516 301.33L344.266 287.655L410.095 211.034L429.126 189.001H451.358Z" fill="white"/>
</svg>
